<?xml version="1.0" encoding="UTF-8"?>
<svg xmlns="http://www.w3.org/2000/svg" xmlns:xlink="http://www.w3.org/1999/xlink" width="16px" height="20px" viewBox="0 0 16 20" version="1.1">
<g id="surface1">
<path style=" stroke:none;fill-rule:nonzero;fill:rgb(17.647059%,17.647059%,17.647059%);fill-opacity:1;" d="M 0 0 L 0 16.394531 L 7.992188 20 L 16 16.394531 L 16 0 Z M 0 0 "/>
<path style=" stroke:none;fill-rule:nonzero;fill:rgb(100%,100%,100%);fill-opacity:1;" d="M 11.671875 5.21875 C 11.675781 5.496094 11.636719 5.769531 11.554688 6.035156 C 11.480469 6.265625 11.371094 6.480469 11.230469 6.679688 C 11.082031 6.882812 10.914062 7.070312 10.722656 7.234375 C 10.523438 7.410156 10.300781 7.589844 10.050781 7.777344 C 9.894531 7.898438 9.765625 8.007812 9.664062 8.101562 C 9.570312 8.183594 9.492188 8.28125 9.425781 8.386719 C 9.367188 8.484375 9.328125 8.589844 9.304688 8.699219 C 9.277344 8.824219 9.265625 8.953125 9.265625 9.085938 L 9.265625 9.453125 L 7.019531 9.453125 L 7.019531 8.917969 C 7.019531 8.695312 7.042969 8.476562 7.09375 8.261719 C 7.136719 8.078125 7.210938 7.898438 7.308594 7.734375 C 7.410156 7.570312 7.527344 7.414062 7.660156 7.269531 C 7.816406 7.105469 7.984375 6.953125 8.160156 6.808594 L 8.636719 6.371094 C 8.789062 6.238281 8.929688 6.089844 9.054688 5.929688 C 9.171875 5.765625 9.230469 5.570312 9.226562 5.371094 C 9.226562 5.074219 9.132812 4.835938 8.945312 4.65625 C 8.757812 4.476562 8.503906 4.386719 8.175781 4.386719 C 7.773438 4.386719 7.46875 4.523438 7.269531 4.789062 C 7.066406 5.054688 6.953125 5.367188 6.9375 5.695312 L 4.648438 5.457031 C 4.703125 4.949219 4.835938 4.503906 5.042969 4.121094 C 5.238281 3.75 5.507812 3.425781 5.839844 3.164062 C 6.171875 2.910156 6.546875 2.714844 6.949219 2.59375 C 7.375 2.464844 7.816406 2.402344 8.261719 2.40625 C 8.691406 2.402344 9.113281 2.457031 9.527344 2.566406 C 9.921875 2.667969 10.289062 2.839844 10.617188 3.074219 C 10.9375 3.308594 11.199219 3.605469 11.382812 3.953125 C 11.574219 4.308594 11.671875 4.730469 11.671875 5.21875 Z M 9.554688 11.433594 C 9.5625 11.792969 9.417969 12.136719 9.152344 12.382812 C 8.882812 12.640625 8.550781 12.769531 8.160156 12.769531 C 7.972656 12.769531 7.789062 12.738281 7.617188 12.671875 C 7.453125 12.605469 7.300781 12.511719 7.171875 12.390625 C 7.042969 12.269531 6.9375 12.125 6.863281 11.96875 C 6.785156 11.804688 6.746094 11.628906 6.746094 11.449219 C 6.746094 11.269531 6.785156 11.097656 6.855469 10.933594 C 6.925781 10.773438 7.027344 10.625 7.15625 10.503906 C 7.289062 10.382812 7.441406 10.285156 7.609375 10.214844 C 7.785156 10.144531 7.96875 10.109375 8.160156 10.109375 C 8.34375 10.109375 8.527344 10.144531 8.699219 10.214844 C 8.863281 10.285156 9.011719 10.378906 9.144531 10.496094 C 9.273438 10.617188 9.378906 10.757812 9.445312 10.917969 C 9.519531 11.082031 9.554688 11.257812 9.554688 11.433594 Z M 9.554688 11.433594 "/>
<path style=" stroke:none;fill-rule:nonzero;fill:rgb(100%,100%,100%);fill-opacity:1;" d="M 0 13.242188 L 0 14.800781 L 7.992188 18.40625 L 16 14.800781 L 16 13.242188 L 7.992188 16.847656 Z M 0 13.242188 "/>
</g>
</svg>
