<?xml version="1.0" encoding="UTF-8"?>
<svg xmlns="http://www.w3.org/2000/svg" xmlns:xlink="http://www.w3.org/1999/xlink" width="16px" height="20px" viewBox="0 0 16 20" version="1.1">
<g id="surface1">
<path style=" stroke:none;fill-rule:nonzero;fill:rgb(67.843137%,33.72549%,0%);fill-opacity:1;" d="M 0 0 L 0 16.394531 L 7.992188 20 L 16 16.394531 L 16 0 Z M 0 0 "/>
<path style=" stroke:none;fill-rule:nonzero;fill:rgb(100%,100%,100%);fill-opacity:1;" d="M 11.742188 9.738281 C 11.742188 10.28125 11.632812 10.75 11.40625 11.148438 C 11.1875 11.535156 10.886719 11.871094 10.519531 12.132812 C 10.148438 12.390625 9.730469 12.585938 9.289062 12.707031 C 8.835938 12.832031 8.371094 12.894531 7.898438 12.898438 C 7.445312 12.898438 6.992188 12.84375 6.554688 12.742188 C 6.132812 12.644531 5.730469 12.484375 5.359375 12.269531 C 4.996094 12.054688 4.675781 11.78125 4.414062 11.453125 C 4.144531 11.121094 3.945312 10.71875 3.808594 10.25 L 6.054688 9.675781 C 6.152344 10.003906 6.347656 10.292969 6.644531 10.539062 C 6.945312 10.789062 7.324219 10.910156 7.785156 10.914062 C 7.960938 10.910156 8.136719 10.886719 8.308594 10.84375 C 8.480469 10.796875 8.640625 10.726562 8.785156 10.625 C 8.929688 10.523438 9.046875 10.390625 9.128906 10.238281 C 9.222656 10.078125 9.265625 9.882812 9.265625 9.648438 C 9.265625 9.394531 9.207031 9.183594 9.085938 9.015625 C 8.964844 8.84375 8.800781 8.707031 8.613281 8.613281 C 8.402344 8.511719 8.175781 8.441406 7.941406 8.402344 C 7.695312 8.359375 7.445312 8.339844 7.195312 8.339844 L 6.546875 8.339844 L 6.546875 6.625 L 7.25 6.625 C 7.472656 6.625 7.695312 6.609375 7.914062 6.574219 C 8.113281 6.546875 8.304688 6.484375 8.480469 6.390625 C 8.644531 6.304688 8.785156 6.183594 8.886719 6.03125 C 8.988281 5.878906 9.035156 5.679688 9.035156 5.4375 C 9.035156 5.078125 8.90625 4.804688 8.648438 4.617188 C 8.390625 4.429688 8.078125 4.328125 7.753906 4.332031 C 7.429688 4.328125 7.109375 4.433594 6.855469 4.636719 C 6.597656 4.839844 6.425781 5.125 6.359375 5.445312 L 4.113281 4.9375 C 4.226562 4.535156 4.417969 4.160156 4.671875 3.832031 C 4.921875 3.523438 5.21875 3.257812 5.558594 3.046875 C 5.90625 2.832031 6.28125 2.671875 6.675781 2.570312 C 7.078125 2.460938 7.496094 2.40625 7.914062 2.40625 C 8.359375 2.40625 8.804688 2.464844 9.234375 2.578125 C 9.644531 2.679688 10.03125 2.855469 10.375 3.097656 C 10.710938 3.328125 10.988281 3.628906 11.191406 3.976562 C 11.394531 4.328125 11.5 4.742188 11.5 5.222656 C 11.5 5.777344 11.339844 6.242188 11.015625 6.625 C 10.699219 7 10.269531 7.269531 9.785156 7.390625 L 9.785156 7.433594 C 10.066406 7.496094 10.332031 7.601562 10.578125 7.75 C 10.8125 7.890625 11.019531 8.066406 11.195312 8.269531 C 11.371094 8.472656 11.503906 8.699219 11.601562 8.945312 C 11.695312 9.199219 11.746094 9.46875 11.742188 9.738281 Z M 11.742188 9.738281 "/>
<path style=" stroke:none;fill-rule:nonzero;fill:rgb(100%,100%,100%);fill-opacity:1;" d="M 0 13.242188 L 0 14.800781 L 7.992188 18.40625 L 16 14.800781 L 16 13.242188 L 7.992188 16.847656 Z M 0 13.242188 "/>
</g>
</svg>
