<?xml version="1.0" encoding="UTF-8"?>
<svg xmlns="http://www.w3.org/2000/svg" xmlns:xlink="http://www.w3.org/1999/xlink" width="16px" height="20px" viewBox="0 0 16 20" version="1.1">
<g id="surface1">
<path style=" stroke:none;fill-rule:nonzero;fill:rgb(92.54902%,60.392157%,0%);fill-opacity:1;" d="M 0 0 L 0 16.394531 L 7.992188 20 L 16 16.394531 L 16 0 Z M 0 0 "/>
<path style=" stroke:none;fill-rule:nonzero;fill:rgb(100%,100%,100%);fill-opacity:1;" d="M 11.730469 9.339844 C 11.730469 9.949219 11.621094 10.476562 11.398438 10.921875 C 11.191406 11.347656 10.890625 11.726562 10.511719 12.023438 C 10.136719 12.316406 9.710938 12.539062 9.253906 12.679688 C 8.351562 12.953125 7.390625 12.96875 6.480469 12.722656 C 6.078125 12.609375 5.695312 12.441406 5.34375 12.222656 C 5.003906 12.007812 4.707031 11.738281 4.464844 11.425781 C 4.214844 11.109375 4.035156 10.75 3.921875 10.367188 L 6.125 9.703125 C 6.226562 10.046875 6.4375 10.347656 6.722656 10.5625 C 7.015625 10.789062 7.367188 10.902344 7.769531 10.902344 C 8.160156 10.910156 8.539062 10.777344 8.839844 10.535156 C 9.144531 10.292969 9.296875 9.929688 9.296875 9.453125 C 9.296875 9.164062 9.234375 8.917969 9.109375 8.722656 C 8.988281 8.53125 8.824219 8.367188 8.625 8.25 C 8.421875 8.128906 8.191406 8.046875 7.957031 8.003906 C 7.710938 7.957031 7.460938 7.933594 7.207031 7.933594 C 6.789062 7.941406 6.375 7.980469 5.960938 8.054688 C 5.539062 8.125 5.121094 8.230469 4.71875 8.371094 L 4.960938 2.671875 L 11.210938 2.671875 L 11.210938 4.699219 L 7.105469 4.699219 L 7.019531 6.273438 C 7.1875 6.234375 7.359375 6.207031 7.53125 6.195312 C 7.71875 6.179688 7.890625 6.171875 8.042969 6.171875 C 8.53125 6.171875 9.015625 6.234375 9.484375 6.367188 C 9.910156 6.488281 10.3125 6.691406 10.65625 6.96875 C 10.988281 7.238281 11.257812 7.578125 11.441406 7.960938 C 11.632812 8.355469 11.730469 8.8125 11.730469 9.339844 Z M 11.730469 9.339844 "/>
<path style=" stroke:none;fill-rule:nonzero;fill:rgb(100%,100%,100%);fill-opacity:1;" d="M 0 13.242188 L 0 14.800781 L 7.992188 18.40625 L 16 14.800781 L 16 13.242188 L 7.992188 16.847656 Z M 0 13.242188 "/>
</g>
</svg>
