<?xml version="1.0" encoding="UTF-8"?>
<svg xmlns="http://www.w3.org/2000/svg" xmlns:xlink="http://www.w3.org/1999/xlink" width="16px" height="20px" viewBox="0 0 16 20" version="1.1">
<g id="surface1">
<path style=" stroke:none;fill-rule:nonzero;fill:rgb(15.294118%,88.627451%,64.313725%);fill-opacity:1;" d="M 0 0 L 0 16.394531 L 7.992188 20 L 16 16.394531 L 16 0 Z M 0 0 "/>
<path style=" stroke:none;fill-rule:nonzero;fill:rgb(100%,100%,100%);fill-opacity:1;" d="M 0 13.242188 L 0 14.800781 L 7.992188 18.40625 L 16 14.800781 L 16 13.242188 L 7.992188 16.847656 Z M 0 13.242188 "/>
<path style=" stroke:none;fill-rule:nonzero;fill:rgb(100%,100%,100%);fill-opacity:1;" d="M 10.765625 10.6875 L 10.765625 12.628906 L 8.503906 12.628906 L 8.503906 10.6875 L 3.707031 10.6875 L 3.707031 8.707031 L 7.855469 2.671875 L 10.75 2.671875 L 10.75 8.777344 L 12.160156 8.777344 L 12.160156 10.691406 Z M 8.519531 5.09375 L 8.476562 5.09375 L 6.054688 8.777344 L 8.519531 8.777344 Z M 8.519531 5.09375 "/>
</g>
</svg>
