<?xml version="1.0" encoding="UTF-8"?>
<svg xmlns="http://www.w3.org/2000/svg" xmlns:xlink="http://www.w3.org/1999/xlink" width="16px" height="20px" viewBox="0 0 16 20" version="1.1">
<g id="surface1">
<path style=" stroke:none;fill-rule:nonzero;fill:rgb(67.843137%,33.72549%,0%);fill-opacity:1;" d="M 0 0 L 0 16.394531 L 7.992188 20 L 16 16.394531 L 16 0 Z M 0 0 "/>
<path style=" stroke:none;fill-rule:nonzero;fill:rgb(100%,100%,100%);fill-opacity:1;" d="M 4.328125 12.628906 L 4.328125 10.664062 L 8.300781 7.15625 C 8.535156 6.941406 8.738281 6.699219 8.90625 6.4375 C 9.0625 6.195312 9.140625 5.910156 9.136719 5.625 C 9.136719 5.269531 9.023438 4.980469 8.792969 4.761719 C 8.5625 4.542969 8.253906 4.429688 7.871094 4.429688 C 7.46875 4.429688 7.140625 4.570312 6.886719 4.847656 C 6.632812 5.121094 6.480469 5.488281 6.429688 5.9375 L 4.109375 5.628906 C 4.15625 5.152344 4.300781 4.695312 4.535156 4.277344 C 4.753906 3.890625 5.042969 3.546875 5.390625 3.265625 C 5.746094 2.984375 6.148438 2.765625 6.578125 2.628906 C 7.039062 2.480469 7.515625 2.402344 8 2.40625 C 8.460938 2.40625 8.921875 2.464844 9.367188 2.589844 C 9.792969 2.703125 10.195312 2.894531 10.546875 3.152344 C 10.894531 3.40625 11.179688 3.730469 11.375 4.109375 C 11.582031 4.492188 11.6875 4.941406 11.6875 5.457031 C 11.691406 5.785156 11.640625 6.109375 11.542969 6.421875 C 11.449219 6.703125 11.316406 6.96875 11.144531 7.214844 C 10.976562 7.460938 10.785156 7.6875 10.570312 7.898438 C 10.355469 8.109375 10.132812 8.316406 9.902344 8.523438 L 7.539062 10.574219 L 11.699219 10.574219 L 11.699219 12.628906 Z M 4.328125 12.628906 "/>
<path style=" stroke:none;fill-rule:nonzero;fill:rgb(100%,100%,100%);fill-opacity:1;" d="M 0 13.242188 L 0 14.800781 L 7.992188 18.40625 L 16 14.800781 L 16 13.242188 L 7.992188 16.847656 Z M 0 13.242188 "/>
</g>
</svg>
